# xmcd
#
# Track frame offsets:
# 150
# 11641
# 20278
# 32022
# 54831
# 70442
# 84554
# 101772
# 115720
# 127980
# 140053
# 153411
# 175138
# 186766
# 201193
# 214398
# 226739
# 238842
# 251189
#
# Disc length: 3538 seconds
#
#
# Revision: 2
# Processed by: cddbd v1.5.1PL0 Copyright (c) Steve Scherf et al.
# Submitted via: FreeRIP 2.92 
#
DISCID=080dd013
DTITLE=S muzikou mnì baví svìt - S muzikou me bavi svet
DYEAR=1900
DGENRE=Country
TTITLE0=Jesse James
TTITLE1=Hardy
TTITLE2=Modrinu haj
TTITLE3=Nedelni rano
TTITLE4=Chrestysi jed
TTITLE5=Ranni ticho
TTITLE6=Stastne stare slunce
TTITLE7=Az prijde ten den
TTITLE8=Sazka
TTITLE9=Sesla se stara parta
TTITLE10=Kdyz clovek prichazi do let
TTITLE11=Kouzelnej kout
TTITLE12=Valcik pri svicce
TTITLE13=Mexico
TTITLE14=Tenesee Walz
TTITLE15=Virginy
TTITLE16=Navrat domu
TTITLE17=Zlatokop Tom
TTITLE18=Libam te dnes naposledy
EXTD=
EXTT0=
EXTT1=
EXTT2=
EXTT3=
EXTT4=
EXTT5=
EXTT6=
EXTT7=
EXTT8=
EXTT9=
EXTT10=
EXTT11=
EXTT12=
EXTT13=
EXTT14=
EXTT15=
EXTT16=
EXTT17=
EXTT18=
PLAYORDER=
